<?xml version="1.0" standalone="no"?>
<!DOCTYPE svg PUBLIC "-//W3C//DTD SVG 20010904//EN"
 "http://www.w3.org/TR/2001/REC-SVG-20010904/DTD/svg10.dtd">
<svg version="1.0" xmlns="http://www.w3.org/2000/svg"
 width="512.000000pt" height="512.000000pt" viewBox="0 0 512.000000 512.000000"
 preserveAspectRatio="xMidYMid meet">
<metadata>
Created by potrace 1.14, written by Peter Selinger 2001-2017
</metadata>
<g transform="translate(0.000000,512.000000) scale(0.100000,-0.100000)"
fill="#000000" stroke="none">
<path d="M3829 4495 c-274 -52 -495 -181 -754 -440 -239 -239 -430 -503 -674
-932 -29 -51 -56 -95 -60 -97 -24 -15 -121 193 -121 261 0 36 69 63 178 69
114 6 128 18 126 112 -1 41 -10 88 -23 122 -12 30 -21 55 -21 56 0 0 18 6 39
13 79 23 116 101 101 211 -12 89 -22 119 -62 181 -64 100 -152 161 -279 194
-101 27 -288 17 -398 -20 -212 -72 -375 -244 -437 -460 -13 -44 -18 -104 -20
-230 -1 -93 -7 -204 -14 -245 -8 -46 -10 -112 -6 -171 15 -236 111 -450 284
-631 l73 -76 -48 -16 c-80 -26 -186 -37 -260 -26 -137 19 -225 91 -242 197 -4
28 -16 64 -25 78 -67 102 -309 55 -464 -89 -159 -149 -233 -329 -237 -581 -2
-112 -6 -140 -29 -204 -53 -148 -52 -349 2 -498 36 -97 69 -151 141 -227 119
-125 269 -192 489 -216 295 -32 565 84 846 365 174 174 309 361 480 664 77
135 102 171 114 166 25 -9 228 -43 310 -51 39 -3 72 -10 72 -14 0 -30 34 -189
49 -232 14 -39 21 -91 24 -193 10 -264 88 -430 236 -502 50 -25 67 -28 161
-28 83 0 119 5 173 23 101 34 201 98 292 187 96 94 149 163 237 305 80 130
278 519 278 547 0 44 -71 103 -125 103 -25 0 -25 2 50 149 47 94 75 161 75
181 0 100 -132 197 -230 169 -43 -12 -55 -21 -104 -81 -55 -69 -128 -102 -223
-102 -72 -1 -76 0 -104 32 -16 18 -29 43 -29 56 0 32 73 279 115 389 63 162
135 266 200 287 27 9 44 7 94 -10 107 -36 172 -22 249 53 117 114 177 336 139
513 -11 50 -13 83 -6 110 13 60 11 223 -5 275 -45 147 -133 241 -271 290 -79
27 -249 34 -356 14z m296 -77 c205 -44 309 -236 262 -485 -46 -241 -200 -381
-350 -318 -63 26 -112 20 -156 -20 -90 -81 -196 -355 -271 -700 -26 -118 -31
-289 -11 -350 35 -103 93 -140 211 -132 116 7 181 37 261 118 58 60 71 69 103
69 27 0 45 -8 70 -32 19 -18 37 -42 40 -54 4 -14 -27 -86 -102 -235 -159 -313
-248 -449 -382 -579 -136 -132 -258 -190 -412 -198 -119 -6 -179 13 -250 77
-140 125 -186 397 -132 784 l7 47 -45 0 c-56 0 -249 25 -351 46 -43 9 -80 14
-82 12 -2 -2 -36 -61 -76 -133 -222 -400 -428 -654 -675 -831 -189 -136 -396
-191 -614 -165 -291 36 -504 197 -581 441 -30 94 -37 263 -15 366 56 256 237
447 448 472 83 10 106 1 113 -47 12 -77 27 -111 69 -158 150 -167 465 -164
717 7 60 41 219 186 219 199 0 3 -33 25 -73 48 -325 185 -525 461 -568 780
-20 153 -2 276 63 412 102 214 341 345 598 328 229 -15 371 -139 387 -336 4
-57 2 -70 -15 -92 -19 -24 -30 -27 -106 -31 -134 -9 -210 -58 -259 -167 -28
-63 -35 -228 -13 -329 24 -113 99 -246 177 -310 l28 -22 116 205 c330 582 662
978 977 1167 231 138 469 190 673 146z m-1273 -2073 l76 -7 -5 -37 c-3 -20 -7
-37 -8 -38 -3 -4 -110 15 -187 33 l-67 16 14 28 c13 26 17 27 57 20 24 -5 78
-11 120 -15z"/>
<path d="M3244 3567 c-66 -45 -147 -143 -259 -312 -81 -122 -284 -466 -300
-507 -5 -12 15 -20 97 -37 107 -22 277 -42 291 -34 4 2 7 12 7 21 0 33 110
340 195 546 114 273 124 356 45 356 -15 0 -50 -15 -76 -33z m-182 -681 l-47
-138 -40 7 c-21 3 -41 8 -44 11 -3 2 35 63 84 134 48 72 89 129 91 127 2 -1
-18 -65 -44 -141z"/>
</g>
</svg>
